<svg xmlns="http://www.w3.org/2000/svg" xmlns:xlink="http://www.w3.org/1999/xlink" width="500" zoomAndPan="magnify" viewBox="0 0 375 374.999991" height="500" preserveAspectRatio="xMidYMid meet" version="1.0"><defs><g/><clipPath id="29488f62fb"><rect x="0" width="124" y="0" height="35"/></clipPath><clipPath id="d23298cb4a"><rect x="0" width="104" y="0" height="18"/></clipPath></defs><rect x="-37.5" width="450" fill="#ffffff" y="-37.499999" height="449.999989" fill-opacity="1"/><rect x="-37.5" width="450" fill="#ffffff" y="-37.499999" height="449.999989" fill-opacity="1"/><g transform="matrix(1, 0, 0, 1, 12, 6)"><g clip-path="url(#29488f62fb)"><g fill="#004aad" fill-opacity="1"><g transform="translate(0.0252021, 29.839639)"><g><path d="M 26 0 L 18.734375 0 L 18.734375 -8.96875 L 15.15625 -2.40625 L 12.3125 -2.40625 L 8.703125 -8.96875 L 8.703125 0 L 1.46875 0 L 1.46875 -22.296875 L 7.9375 -22.296875 L 13.734375 -10.65625 L 19.53125 -22.296875 L 26 -22.296875 Z M 26 0 "/></g></g></g><g fill="#004aad" fill-opacity="1"><g transform="translate(27.402346, 29.839639)"><g><path d="M 8.703125 -16.71875 L 8.703125 -13.828125 L 18.546875 -13.828125 L 18.546875 -8.46875 L 8.703125 -8.46875 L 8.703125 -5.578125 L 18.546875 -5.578125 L 18.546875 0 L 1.46875 0 L 1.46875 -22.296875 L 18.546875 -22.296875 L 18.546875 -16.71875 Z M 8.703125 -16.71875 "/></g></g></g><g fill="#004aad" fill-opacity="1"><g transform="translate(47.422442, 29.839639)"><g><path d="M 10.390625 -22.296875 C 13.753906 -22.296875 16.34375 -21.328125 18.15625 -19.390625 C 19.96875 -17.460938 20.875 -14.71875 20.875 -11.15625 C 20.875 -7.582031 19.96875 -4.828125 18.15625 -2.890625 C 16.34375 -0.960938 13.753906 0 10.390625 0 L 1.46875 0 L 1.46875 -22.296875 Z M 10.84375 -6.25 C 11.757812 -6.25 12.46875 -6.675781 12.96875 -7.53125 C 13.476562 -8.394531 13.734375 -9.601562 13.734375 -11.15625 C 13.734375 -12.726562 13.476562 -13.9375 12.96875 -14.78125 C 12.46875 -15.632812 11.757812 -16.0625 10.84375 -16.0625 L 8.703125 -16.0625 L 8.703125 -6.25 Z M 10.84375 -6.25 "/></g></g></g><g fill="#004aad" fill-opacity="1"><g transform="translate(69.270637, 29.839639)"><g><path d="M 8.703125 -22.296875 L 8.703125 0 L 1.46875 0 L 1.46875 -22.296875 Z M 8.703125 -22.296875 "/></g></g></g><g fill="#004aad" fill-opacity="1"><g transform="translate(79.392153, 29.839639)"><g><path d="M 8.703125 -16.71875 L 8.703125 -13.828125 L 18.546875 -13.828125 L 18.546875 -8.46875 L 8.703125 -8.46875 L 8.703125 0 L 1.46875 0 L 1.46875 -22.296875 L 18.546875 -22.296875 L 18.546875 -16.71875 Z M 8.703125 -16.71875 "/></g></g></g><g fill="#004aad" fill-opacity="1"><g transform="translate(99.412249, 29.839639)"><g><path d="M 22.390625 -22.296875 L 15.078125 -9.09375 L 15.078125 0 L 7.796875 0 L 7.796875 -9.09375 L 0.484375 -22.296875 L 8.109375 -22.296875 L 11.421875 -15.078125 L 14.765625 -22.296875 Z M 22.390625 -22.296875 "/></g></g></g></g></g><g transform="matrix(1, 0, 0, 1, 12, 41)"><g clip-path="url(#d23298cb4a)"><g fill="#000000" fill-opacity="1"><g transform="translate(0.00995458, 13.156206)"><g><path d="M 4.25 -8.953125 C 5.15625 -8.953125 5.929688 -8.789062 6.578125 -8.46875 C 7.234375 -8.144531 7.738281 -7.648438 8.09375 -6.984375 C 8.445312 -6.316406 8.625 -5.484375 8.625 -4.484375 C 8.625 -3.472656 8.445312 -2.632812 8.09375 -1.96875 C 7.738281 -1.300781 7.234375 -0.804688 6.578125 -0.484375 C 5.929688 -0.160156 5.15625 0 4.25 0 L 1.359375 0 L 1.359375 -8.953125 Z M 4.140625 -0.890625 C 4.890625 -0.890625 5.507812 -1.003906 6 -1.234375 C 6.488281 -1.472656 6.859375 -1.851562 7.109375 -2.375 C 7.367188 -2.90625 7.5 -3.609375 7.5 -4.484375 C 7.5 -5.359375 7.367188 -6.054688 7.109375 -6.578125 C 6.859375 -7.097656 6.488281 -7.472656 6 -7.703125 C 5.507812 -7.941406 4.890625 -8.0625 4.140625 -8.0625 L 2.40625 -8.0625 L 2.40625 -0.890625 Z M 4.140625 -0.890625 "/></g></g></g><g fill="#000000" fill-opacity="1"><g transform="translate(9.525251, 13.156206)"><g><path d="M 2.78125 0.125 C 2.113281 0.125 1.59375 -0.046875 1.21875 -0.390625 C 0.851562 -0.734375 0.671875 -1.226562 0.671875 -1.875 C 0.671875 -2.28125 0.75 -2.617188 0.90625 -2.890625 C 1.070312 -3.171875 1.328125 -3.394531 1.671875 -3.5625 C 2.023438 -3.738281 2.484375 -3.875 3.046875 -3.96875 C 3.535156 -4.050781 3.90625 -4.144531 4.15625 -4.25 C 4.414062 -4.351562 4.585938 -4.46875 4.671875 -4.59375 C 4.765625 -4.71875 4.8125 -4.875 4.8125 -5.0625 C 4.8125 -5.375 4.703125 -5.609375 4.484375 -5.765625 C 4.273438 -5.929688 3.941406 -6.015625 3.484375 -6.015625 C 3.046875 -6.015625 2.671875 -5.925781 2.359375 -5.75 C 2.046875 -5.582031 1.757812 -5.332031 1.5 -5 L 1.375 -5 L 0.875 -5.703125 C 1.164062 -6.066406 1.53125 -6.351562 1.96875 -6.5625 C 2.414062 -6.78125 2.921875 -6.890625 3.484375 -6.890625 C 4.273438 -6.890625 4.859375 -6.710938 5.234375 -6.359375 C 5.617188 -6.015625 5.8125 -5.53125 5.8125 -4.90625 L 5.8125 -1.328125 C 5.8125 -0.953125 5.96875 -0.765625 6.28125 -0.765625 C 6.382812 -0.765625 6.488281 -0.785156 6.59375 -0.828125 L 6.671875 -0.796875 L 6.796875 -0.109375 C 6.722656 -0.0546875 6.625 -0.0195312 6.5 0 C 6.382812 0.03125 6.257812 0.046875 6.125 0.046875 C 5.757812 0.046875 5.476562 -0.03125 5.28125 -0.1875 C 5.09375 -0.351562 4.972656 -0.597656 4.921875 -0.921875 L 4.796875 -0.9375 C 4.609375 -0.570312 4.347656 -0.300781 4.015625 -0.125 C 3.691406 0.0390625 3.28125 0.125 2.78125 0.125 Z M 3.015625 -0.671875 C 3.390625 -0.671875 3.710938 -0.753906 3.984375 -0.921875 C 4.265625 -1.097656 4.476562 -1.34375 4.625 -1.65625 C 4.769531 -1.96875 4.84375 -2.332031 4.84375 -2.75 L 4.84375 -3.609375 L 4.71875 -3.640625 C 4.570312 -3.523438 4.390625 -3.429688 4.171875 -3.359375 C 3.953125 -3.296875 3.648438 -3.234375 3.265625 -3.171875 C 2.867188 -3.117188 2.554688 -3.035156 2.328125 -2.921875 C 2.097656 -2.816406 1.929688 -2.675781 1.828125 -2.5 C 1.734375 -2.332031 1.6875 -2.125 1.6875 -1.875 C 1.6875 -1.476562 1.800781 -1.175781 2.03125 -0.96875 C 2.269531 -0.769531 2.597656 -0.671875 3.015625 -0.671875 Z M 3.015625 -0.671875 "/></g></g></g><g fill="#000000" fill-opacity="1"><g transform="translate(16.511711, 13.156206)"><g><path d="M 3.078125 0.125 C 2.648438 0.125 2.253906 0.0703125 1.890625 -0.03125 C 1.535156 -0.144531 1.234375 -0.300781 0.984375 -0.5 C 0.734375 -0.695312 0.554688 -0.914062 0.453125 -1.15625 L 1.046875 -1.78125 L 1.171875 -1.78125 C 1.390625 -1.445312 1.65625 -1.191406 1.96875 -1.015625 C 2.28125 -0.847656 2.648438 -0.765625 3.078125 -0.765625 C 3.578125 -0.765625 3.957031 -0.859375 4.21875 -1.046875 C 4.476562 -1.242188 4.609375 -1.519531 4.609375 -1.875 C 4.609375 -2.132812 4.53125 -2.347656 4.375 -2.515625 C 4.21875 -2.691406 3.960938 -2.828125 3.609375 -2.921875 L 2.46875 -3.203125 C 1.863281 -3.347656 1.421875 -3.578125 1.140625 -3.890625 C 0.859375 -4.210938 0.71875 -4.609375 0.71875 -5.078125 C 0.71875 -5.441406 0.8125 -5.757812 1 -6.03125 C 1.1875 -6.300781 1.457031 -6.507812 1.8125 -6.65625 C 2.164062 -6.8125 2.582031 -6.890625 3.0625 -6.890625 C 3.6875 -6.890625 4.175781 -6.800781 4.53125 -6.625 C 4.894531 -6.445312 5.175781 -6.207031 5.375 -5.90625 L 4.8125 -5.34375 L 4.6875 -5.34375 C 4.46875 -5.59375 4.226562 -5.769531 3.96875 -5.875 C 3.71875 -5.988281 3.414062 -6.046875 3.0625 -6.046875 C 2.625 -6.046875 2.285156 -5.96875 2.046875 -5.8125 C 1.804688 -5.65625 1.6875 -5.425781 1.6875 -5.125 C 1.6875 -4.851562 1.769531 -4.628906 1.9375 -4.453125 C 2.101562 -4.285156 2.394531 -4.15625 2.8125 -4.0625 L 3.9375 -3.78125 C 4.53125 -3.644531 4.957031 -3.414062 5.21875 -3.09375 C 5.476562 -2.769531 5.609375 -2.363281 5.609375 -1.875 C 5.609375 -1.476562 5.515625 -1.128906 5.328125 -0.828125 C 5.140625 -0.523438 4.851562 -0.289062 4.46875 -0.125 C 4.09375 0.0390625 3.628906 0.125 3.078125 0.125 Z M 3.078125 0.125 "/></g></g></g><g fill="#000000" fill-opacity="1"><g transform="translate(22.757272, 13.156206)"><g><path d="M 1.171875 0 L 1.171875 -9.46875 L 2.171875 -9.46875 L 2.171875 -5.796875 L 2.296875 -5.765625 C 2.785156 -6.515625 3.484375 -6.890625 4.390625 -6.890625 C 5.203125 -6.890625 5.789062 -6.679688 6.15625 -6.265625 C 6.519531 -5.847656 6.703125 -5.207031 6.703125 -4.34375 L 6.703125 0 L 5.703125 0 L 5.703125 -4.328125 C 5.703125 -4.734375 5.648438 -5.054688 5.546875 -5.296875 C 5.441406 -5.546875 5.28125 -5.726562 5.0625 -5.84375 C 4.84375 -5.957031 4.554688 -6.015625 4.203125 -6.015625 C 3.597656 -6.015625 3.109375 -5.816406 2.734375 -5.421875 C 2.359375 -5.023438 2.171875 -4.375 2.171875 -3.46875 L 2.171875 0 Z M 1.171875 0 "/></g></g></g><g fill="#000000" fill-opacity="1"><g transform="translate(30.533608, 13.156206)"><g><path d="M 4.484375 0.125 C 3.984375 0.125 3.546875 0.03125 3.171875 -0.15625 C 2.804688 -0.351562 2.515625 -0.613281 2.296875 -0.9375 L 2.171875 -0.90625 L 2.171875 0 L 1.171875 0 L 1.171875 -9.46875 L 2.171875 -9.46875 L 2.171875 -5.75 L 2.296875 -5.71875 C 2.816406 -6.5 3.566406 -6.890625 4.546875 -6.890625 C 5.097656 -6.890625 5.582031 -6.757812 6 -6.5 C 6.414062 -6.238281 6.738281 -5.847656 6.96875 -5.328125 C 7.207031 -4.804688 7.328125 -4.15625 7.328125 -3.375 C 7.328125 -2.601562 7.203125 -1.957031 6.953125 -1.4375 C 6.710938 -0.914062 6.378906 -0.523438 5.953125 -0.265625 C 5.523438 -0.00390625 5.035156 0.125 4.484375 0.125 Z M 4.25 -0.765625 C 5.601562 -0.765625 6.28125 -1.632812 6.28125 -3.375 C 6.28125 -4.28125 6.101562 -4.941406 5.75 -5.359375 C 5.394531 -5.773438 4.894531 -5.984375 4.25 -5.984375 C 3.613281 -5.984375 3.109375 -5.769531 2.734375 -5.34375 C 2.359375 -4.914062 2.171875 -4.257812 2.171875 -3.375 C 2.171875 -2.5 2.359375 -1.84375 2.734375 -1.40625 C 3.109375 -0.976562 3.613281 -0.765625 4.25 -0.765625 Z M 4.25 -0.765625 "/></g></g></g><g fill="#000000" fill-opacity="1"><g transform="translate(38.591606, 13.156206)"><g><path d="M 3.875 0.125 C 3.238281 0.125 2.679688 -0.0078125 2.203125 -0.28125 C 1.734375 -0.550781 1.367188 -0.945312 1.109375 -1.46875 C 0.859375 -1.988281 0.734375 -2.625 0.734375 -3.375 C 0.734375 -4.125 0.859375 -4.757812 1.109375 -5.28125 C 1.367188 -5.8125 1.734375 -6.210938 2.203125 -6.484375 C 2.679688 -6.753906 3.238281 -6.890625 3.875 -6.890625 C 4.507812 -6.890625 5.0625 -6.753906 5.53125 -6.484375 C 6.007812 -6.210938 6.375 -5.8125 6.625 -5.28125 C 6.882812 -4.757812 7.015625 -4.125 7.015625 -3.375 C 7.015625 -2.625 6.882812 -1.988281 6.625 -1.46875 C 6.375 -0.945312 6.007812 -0.550781 5.53125 -0.28125 C 5.0625 -0.0078125 4.507812 0.125 3.875 0.125 Z M 3.875 -0.765625 C 4.550781 -0.765625 5.066406 -0.976562 5.421875 -1.40625 C 5.785156 -1.832031 5.96875 -2.488281 5.96875 -3.375 C 5.96875 -4.269531 5.785156 -4.925781 5.421875 -5.34375 C 5.066406 -5.769531 4.550781 -5.984375 3.875 -5.984375 C 3.195312 -5.984375 2.675781 -5.769531 2.3125 -5.34375 C 1.957031 -4.925781 1.78125 -4.269531 1.78125 -3.375 C 1.78125 -2.488281 1.957031 -1.832031 2.3125 -1.40625 C 2.675781 -0.976562 3.195312 -0.765625 3.875 -0.765625 Z M 3.875 -0.765625 "/></g></g></g><g fill="#000000" fill-opacity="1"><g transform="translate(46.34345, 13.156206)"><g><path d="M 2.78125 0.125 C 2.113281 0.125 1.59375 -0.046875 1.21875 -0.390625 C 0.851562 -0.734375 0.671875 -1.226562 0.671875 -1.875 C 0.671875 -2.28125 0.75 -2.617188 0.90625 -2.890625 C 1.070312 -3.171875 1.328125 -3.394531 1.671875 -3.5625 C 2.023438 -3.738281 2.484375 -3.875 3.046875 -3.96875 C 3.535156 -4.050781 3.90625 -4.144531 4.15625 -4.25 C 4.414062 -4.351562 4.585938 -4.46875 4.671875 -4.59375 C 4.765625 -4.71875 4.8125 -4.875 4.8125 -5.0625 C 4.8125 -5.375 4.703125 -5.609375 4.484375 -5.765625 C 4.273438 -5.929688 3.941406 -6.015625 3.484375 -6.015625 C 3.046875 -6.015625 2.671875 -5.925781 2.359375 -5.75 C 2.046875 -5.582031 1.757812 -5.332031 1.5 -5 L 1.375 -5 L 0.875 -5.703125 C 1.164062 -6.066406 1.53125 -6.351562 1.96875 -6.5625 C 2.414062 -6.78125 2.921875 -6.890625 3.484375 -6.890625 C 4.273438 -6.890625 4.859375 -6.710938 5.234375 -6.359375 C 5.617188 -6.015625 5.8125 -5.53125 5.8125 -4.90625 L 5.8125 -1.328125 C 5.8125 -0.953125 5.96875 -0.765625 6.28125 -0.765625 C 6.382812 -0.765625 6.488281 -0.785156 6.59375 -0.828125 L 6.671875 -0.796875 L 6.796875 -0.109375 C 6.722656 -0.0546875 6.625 -0.0195312 6.5 0 C 6.382812 0.03125 6.257812 0.046875 6.125 0.046875 C 5.757812 0.046875 5.476562 -0.03125 5.28125 -0.1875 C 5.09375 -0.351562 4.972656 -0.597656 4.921875 -0.921875 L 4.796875 -0.9375 C 4.609375 -0.570312 4.347656 -0.300781 4.015625 -0.125 C 3.691406 0.0390625 3.28125 0.125 2.78125 0.125 Z M 3.015625 -0.671875 C 3.390625 -0.671875 3.710938 -0.753906 3.984375 -0.921875 C 4.265625 -1.097656 4.476562 -1.34375 4.625 -1.65625 C 4.769531 -1.96875 4.84375 -2.332031 4.84375 -2.75 L 4.84375 -3.609375 L 4.71875 -3.640625 C 4.570312 -3.523438 4.390625 -3.429688 4.171875 -3.359375 C 3.953125 -3.296875 3.648438 -3.234375 3.265625 -3.171875 C 2.867188 -3.117188 2.554688 -3.035156 2.328125 -2.921875 C 2.097656 -2.816406 1.929688 -2.675781 1.828125 -2.5 C 1.734375 -2.332031 1.6875 -2.125 1.6875 -1.875 C 1.6875 -1.476562 1.800781 -1.175781 2.03125 -0.96875 C 2.269531 -0.769531 2.597656 -0.671875 3.015625 -0.671875 Z M 3.015625 -0.671875 "/></g></g></g><g fill="#000000" fill-opacity="1"><g transform="translate(53.32991, 13.156206)"><g><path d="M 1.171875 0 L 1.171875 -6.75 L 2.125 -6.75 L 2.125 -5.703125 L 2.25 -5.671875 C 2.5625 -6.429688 3.15625 -6.8125 4.03125 -6.8125 C 4.488281 -6.8125 4.832031 -6.726562 5.0625 -6.5625 L 4.8125 -5.71875 L 4.6875 -5.703125 C 4.4375 -5.828125 4.160156 -5.890625 3.859375 -5.890625 C 3.316406 -5.890625 2.898438 -5.6875 2.609375 -5.28125 C 2.316406 -4.875 2.171875 -4.21875 2.171875 -3.3125 L 2.171875 0 Z M 1.171875 0 "/></g></g></g><g fill="#000000" fill-opacity="1"><g transform="translate(58.369208, 13.156206)"><g><path d="M 3.5 0.125 C 2.957031 0.125 2.476562 -0.00390625 2.0625 -0.265625 C 1.65625 -0.523438 1.332031 -0.914062 1.09375 -1.4375 C 0.851562 -1.957031 0.734375 -2.601562 0.734375 -3.375 C 0.734375 -4.144531 0.851562 -4.789062 1.09375 -5.3125 C 1.34375 -5.84375 1.679688 -6.238281 2.109375 -6.5 C 2.546875 -6.757812 3.050781 -6.890625 3.625 -6.890625 C 4.070312 -6.890625 4.472656 -6.800781 4.828125 -6.625 C 5.191406 -6.457031 5.503906 -6.179688 5.765625 -5.796875 L 5.890625 -5.8125 L 5.890625 -9.46875 L 6.890625 -9.46875 L 6.890625 0 L 5.890625 0 L 5.890625 -0.984375 L 5.765625 -1.015625 C 5.535156 -0.679688 5.234375 -0.40625 4.859375 -0.1875 C 4.484375 0.0195312 4.03125 0.125 3.5 0.125 Z M 3.8125 -0.765625 C 4.445312 -0.765625 4.953125 -0.976562 5.328125 -1.40625 C 5.703125 -1.84375 5.890625 -2.5 5.890625 -3.375 C 5.890625 -4.257812 5.703125 -4.914062 5.328125 -5.34375 C 4.953125 -5.769531 4.445312 -5.984375 3.8125 -5.984375 C 3.164062 -5.984375 2.664062 -5.773438 2.3125 -5.359375 C 1.957031 -4.941406 1.78125 -4.28125 1.78125 -3.375 C 1.78125 -1.632812 2.457031 -0.765625 3.8125 -0.765625 Z M 3.8125 -0.765625 "/></g></g></g><g fill="#000000" fill-opacity="1"><g transform="translate(66.433334, 13.156206)"><g/></g></g><g fill="#000000" fill-opacity="1"><g transform="translate(69.507129, 13.156206)"><g><path d="M 4.5625 -8.953125 C 5.175781 -8.953125 5.703125 -8.84375 6.140625 -8.625 C 6.585938 -8.40625 6.925781 -8.085938 7.15625 -7.671875 C 7.382812 -7.265625 7.5 -6.785156 7.5 -6.234375 C 7.5 -5.671875 7.382812 -5.1875 7.15625 -4.78125 C 6.925781 -4.375 6.585938 -4.054688 6.140625 -3.828125 C 5.703125 -3.609375 5.175781 -3.5 4.5625 -3.5 L 2.40625 -3.5 L 2.40625 0 L 1.359375 0 L 1.359375 -8.953125 Z M 4.53125 -4.40625 C 5.769531 -4.40625 6.390625 -5.015625 6.390625 -6.234375 C 6.390625 -7.453125 5.769531 -8.0625 4.53125 -8.0625 L 2.40625 -8.0625 L 2.40625 -4.40625 Z M 4.53125 -4.40625 "/></g></g></g><g fill="#000000" fill-opacity="1"><g transform="translate(77.338551, 13.156206)"><g><path d="M 2.78125 0.125 C 2.113281 0.125 1.59375 -0.046875 1.21875 -0.390625 C 0.851562 -0.734375 0.671875 -1.226562 0.671875 -1.875 C 0.671875 -2.28125 0.75 -2.617188 0.90625 -2.890625 C 1.070312 -3.171875 1.328125 -3.394531 1.671875 -3.5625 C 2.023438 -3.738281 2.484375 -3.875 3.046875 -3.96875 C 3.535156 -4.050781 3.90625 -4.144531 4.15625 -4.25 C 4.414062 -4.351562 4.585938 -4.46875 4.671875 -4.59375 C 4.765625 -4.71875 4.8125 -4.875 4.8125 -5.0625 C 4.8125 -5.375 4.703125 -5.609375 4.484375 -5.765625 C 4.273438 -5.929688 3.941406 -6.015625 3.484375 -6.015625 C 3.046875 -6.015625 2.671875 -5.925781 2.359375 -5.75 C 2.046875 -5.582031 1.757812 -5.332031 1.5 -5 L 1.375 -5 L 0.875 -5.703125 C 1.164062 -6.066406 1.53125 -6.351562 1.96875 -6.5625 C 2.414062 -6.78125 2.921875 -6.890625 3.484375 -6.890625 C 4.273438 -6.890625 4.859375 -6.710938 5.234375 -6.359375 C 5.617188 -6.015625 5.8125 -5.53125 5.8125 -4.90625 L 5.8125 -1.328125 C 5.8125 -0.953125 5.96875 -0.765625 6.28125 -0.765625 C 6.382812 -0.765625 6.488281 -0.785156 6.59375 -0.828125 L 6.671875 -0.796875 L 6.796875 -0.109375 C 6.722656 -0.0546875 6.625 -0.0195312 6.5 0 C 6.382812 0.03125 6.257812 0.046875 6.125 0.046875 C 5.757812 0.046875 5.476562 -0.03125 5.28125 -0.1875 C 5.09375 -0.351562 4.972656 -0.597656 4.921875 -0.921875 L 4.796875 -0.9375 C 4.609375 -0.570312 4.347656 -0.300781 4.015625 -0.125 C 3.691406 0.0390625 3.28125 0.125 2.78125 0.125 Z M 3.015625 -0.671875 C 3.390625 -0.671875 3.710938 -0.753906 3.984375 -0.921875 C 4.265625 -1.097656 4.476562 -1.34375 4.625 -1.65625 C 4.769531 -1.96875 4.84375 -2.332031 4.84375 -2.75 L 4.84375 -3.609375 L 4.71875 -3.640625 C 4.570312 -3.523438 4.390625 -3.429688 4.171875 -3.359375 C 3.953125 -3.296875 3.648438 -3.234375 3.265625 -3.171875 C 2.867188 -3.117188 2.554688 -3.035156 2.328125 -2.921875 C 2.097656 -2.816406 1.929688 -2.675781 1.828125 -2.5 C 1.734375 -2.332031 1.6875 -2.125 1.6875 -1.875 C 1.6875 -1.476562 1.800781 -1.175781 2.03125 -0.96875 C 2.269531 -0.769531 2.597656 -0.671875 3.015625 -0.671875 Z M 3.015625 -0.671875 "/></g></g></g><g fill="#000000" fill-opacity="1"><g transform="translate(84.325011, 13.156206)"><g><path d="M 1.171875 0 L 1.171875 -6.75 L 2.125 -6.75 L 2.125 -5.703125 L 2.25 -5.671875 C 2.476562 -6.066406 2.765625 -6.367188 3.109375 -6.578125 C 3.460938 -6.785156 3.890625 -6.890625 4.390625 -6.890625 C 5.203125 -6.890625 5.789062 -6.679688 6.15625 -6.265625 C 6.519531 -5.847656 6.703125 -5.207031 6.703125 -4.34375 L 6.703125 0 L 5.703125 0 L 5.703125 -4.328125 C 5.703125 -4.734375 5.648438 -5.054688 5.546875 -5.296875 C 5.441406 -5.546875 5.28125 -5.726562 5.0625 -5.84375 C 4.84375 -5.957031 4.554688 -6.015625 4.203125 -6.015625 C 3.597656 -6.015625 3.109375 -5.8125 2.734375 -5.40625 C 2.359375 -5.007812 2.171875 -4.363281 2.171875 -3.46875 L 2.171875 0 Z M 1.171875 0 "/></g></g></g><g fill="#000000" fill-opacity="1"><g transform="translate(92.101347, 13.156206)"><g><path d="M 6.4375 -3.15625 L 1.796875 -3.15625 C 1.828125 -2.332031 2.023438 -1.726562 2.390625 -1.34375 C 2.753906 -0.957031 3.253906 -0.765625 3.890625 -0.765625 C 4.367188 -0.765625 4.753906 -0.847656 5.046875 -1.015625 C 5.347656 -1.191406 5.582031 -1.460938 5.75 -1.828125 L 5.875 -1.828125 L 6.53125 -1.453125 C 6.332031 -0.953125 6.015625 -0.5625 5.578125 -0.28125 C 5.148438 -0.0078125 4.585938 0.125 3.890625 0.125 C 3.234375 0.125 2.671875 0 2.203125 -0.25 C 1.734375 -0.507812 1.367188 -0.898438 1.109375 -1.421875 C 0.859375 -1.953125 0.734375 -2.601562 0.734375 -3.375 C 0.734375 -4.144531 0.867188 -4.789062 1.140625 -5.3125 C 1.410156 -5.84375 1.773438 -6.238281 2.234375 -6.5 C 2.703125 -6.757812 3.234375 -6.890625 3.828125 -6.890625 C 4.691406 -6.890625 5.363281 -6.644531 5.84375 -6.15625 C 6.332031 -5.664062 6.582031 -4.941406 6.59375 -3.984375 C 6.59375 -3.609375 6.582031 -3.351562 6.5625 -3.21875 Z M 5.609375 -3.984375 C 5.585938 -4.703125 5.425781 -5.222656 5.125 -5.546875 C 4.820312 -5.878906 4.390625 -6.046875 3.828125 -6.046875 C 3.234375 -6.046875 2.769531 -5.878906 2.4375 -5.546875 C 2.101562 -5.210938 1.894531 -4.691406 1.8125 -3.984375 Z M 5.609375 -3.984375 "/></g></g></g><g fill="#000000" fill-opacity="1"><g transform="translate(99.302112, 13.156206)"><g><path d="M 2.6875 0.125 C 2.207031 0.125 1.832031 -0.0078125 1.5625 -0.28125 C 1.289062 -0.550781 1.15625 -0.957031 1.15625 -1.5 L 1.15625 -9.46875 L 2.15625 -9.46875 L 2.15625 -1.5625 C 2.15625 -1.28125 2.207031 -1.078125 2.3125 -0.953125 C 2.414062 -0.828125 2.582031 -0.765625 2.8125 -0.765625 C 2.957031 -0.765625 3.097656 -0.785156 3.234375 -0.828125 L 3.328125 -0.8125 L 3.4375 -0.03125 C 3.363281 0.0195312 3.257812 0.0546875 3.125 0.078125 C 2.988281 0.109375 2.84375 0.125 2.6875 0.125 Z M 2.6875 0.125 "/></g></g></g></g></g></svg>